<?xml version="1.0" standalone="no"?>
<!DOCTYPE svg PUBLIC "-//W3C//DTD SVG 20010904//EN"
 "http://www.w3.org/TR/2001/REC-SVG-20010904/DTD/svg10.dtd">
<svg version="1.0" xmlns="http://www.w3.org/2000/svg"
 width="500.000000pt" height="500.000000pt" viewBox="0 0 500.000000 500.000000"
 preserveAspectRatio="xMidYMid meet">

<g transform="translate(0.000000,500.000000) scale(0.100000,-0.100000)"
fill="#000000" stroke="none">
<path d="M760 2500 l0 -480 1740 0 1740 0 0 480 0 480 -1740 0 -1740 0 0 -480z
m3450 0 l0 -450 -1715 0 -1715 0 0 450 0 450 1715 0 1715 0 0 -450z"/>
<path d="M850 2500 l0 -390 820 0 820 0 0 390 0 390 -820 0 -820 0 0 -390z
m550 125 c0 -12 -13 -15 -60 -15 l-60 0 0 -45 0 -45 55 0 c42 0 55 -3 55 -15
0 -12 -13 -15 -55 -15 l-55 0 0 -55 c0 -42 -3 -55 -15 -55 -13 0 -15 21 -15
130 l0 130 75 0 c60 0 75 -3 75 -15z m244 -102 c27 -65 51 -124 53 -130 11
-27 -27 -11 -42 17 -15 28 -19 30 -78 30 -60 0 -63 -1 -74 -30 -6 -17 -19 -30
-28 -30 -20 0 -23 -10 42 148 32 80 51 112 62 112 12 0 31 -34 65 -117z m166
-13 c0 -109 -2 -130 -15 -130 -13 0 -15 21 -15 130 0 109 2 130 15 130 13 0
15 -21 15 -130z m258 114 c48 -33 47 -99 0 -135 l-21 -16 32 -47 c29 -42 30
-46 12 -46 -12 0 -32 17 -51 45 -25 36 -37 45 -60 45 -29 0 -30 -2 -30 -45 0
-33 -4 -45 -15 -45 -13 0 -15 21 -15 130 l0 130 63 0 c41 0 70 -5 85 -16z"/>
<path d="M1554 2538 c-10 -29 -20 -56 -22 -60 -2 -4 19 -8 47 -8 l51 0 -21 53
c-11 28 -24 55 -28 60 -4 4 -16 -16 -27 -45z"/>
<path d="M1950 2560 l0 -50 48 0 c55 0 72 12 72 52 0 33 -24 48 -79 48 l-41 0
0 -50z"/>
<path d="M2683 2640 c-37 -15 -57 -56 -47 -93 8 -26 19 -36 59 -52 72 -29 78
-34 64 -51 -15 -19 -25 -18 -47 6 -14 15 -26 19 -50 14 -37 -8 -37 -6 -17 -44
17 -33 42 -43 103 -42 56 0 92 31 92 78 0 42 -28 69 -86 83 -33 9 -44 16 -44
31 0 24 32 27 50 5 11 -14 80 -22 80 -10 0 4 -7 19 -15 34 -22 43 -89 62 -142
41z"/>
<path d="M3903 2631 c-55 -25 -77 -67 -70 -135 4 -41 10 -55 41 -83 31 -29 42
-33 92 -33 64 0 103 19 128 60 20 35 21 102 0 141 -17 33 -82 69 -124 69 -14
0 -44 -9 -67 -19z m107 -69 c25 -21 30 -73 9 -98 -18 -22 -86 -18 -99 6 -18
34 -8 83 20 97 34 17 44 16 70 -5z"/>
<path d="M2868 2628 c-3 -7 -2 -22 0 -35 3 -17 12 -23 41 -25 l36 -3 0 -93 0
-92 38 0 37 0 0 95 0 95 40 0 c39 0 40 1 40 35 l0 35 -114 0 c-81 0 -116 -4
-118 -12z"/>
<path d="M3140 2539 c0 -98 1 -101 29 -130 16 -16 40 -29 53 -30 116 -6 148
32 148 175 l0 86 -40 0 -39 0 -3 -92 c-3 -90 -4 -93 -27 -96 -38 -6 -51 22
-51 110 l0 78 -35 0 -35 0 0 -101z"/>
<path d="M3420 2511 l0 -131 70 0 c121 0 170 35 178 124 4 50 2 56 -31 92
l-35 39 -91 3 -91 4 0 -131z m151 49 c13 -7 19 -21 19 -45 0 -41 -22 -65 -61
-65 -29 0 -29 0 -29 60 0 58 1 60 26 60 14 0 34 -5 45 -10z"/>
<path d="M3710 2510 l0 -130 40 0 40 0 0 130 0 130 -40 0 -40 0 0 -130z"/>
</g>
</svg>
