<?xml version="1.0" encoding="utf-8"?>
<!-- Generator: Adobe Illustrator 26.0.3, SVG Export Plug-In . SVG Version: 6.00 Build 0)  -->
<svg version="1.0" id="katman_1" xmlns="http://www.w3.org/2000/svg" xmlns:xlink="http://www.w3.org/1999/xlink" x="0px" y="0px"
	 viewBox="0 0 800 600" style="enable-background:new 0 0 800 600;" xml:space="preserve">
<style type="text/css">
	.st0{fill:#FF4A4A;}
	.st1{clip-path:url(#SVGID_00000104665675649889389580000002677258926039222197_);}
	.st2{fill:#FFFFFF;}
</style>
<circle class="st0" cx="399.8" cy="299.6" r="259"/>
<g>
	<defs>
		<rect id="SVGID_1_" x="207.4" y="250.6" width="381.4" height="94.5"/>
	</defs>
	<clipPath id="SVGID_00000029021186003660307230000014126051914171200401_">
		<use xlink:href="#SVGID_1_"  style="overflow:visible;"/>
	</clipPath>
	<g style="clip-path:url(#SVGID_00000029021186003660307230000014126051914171200401_);">
		<path class="st2" d="M452,345.1h-16.1c-0.7,0-1.4-0.1-2.1-0.4c-0.7-0.3-1.3-0.7-1.8-1.2c-0.5-0.5-0.9-1.1-1.2-1.8
			c-0.3-0.7-0.4-1.4-0.4-2.1v-42l-28.3,17.5c-1.2,0.7-2.5,1.1-3.9,1.1c-1.4,0-2.7-0.4-3.9-1.1L366,297.6v42c0,0.7-0.1,1.4-0.4,2.1
			c-0.3,0.7-0.7,1.3-1.2,1.8c-0.5,0.5-1.1,0.9-1.8,1.2c-0.7,0.3-1.4,0.4-2.1,0.4h-16.1c-0.7,0-1.4-0.1-2.1-0.4
			c-0.7-0.3-1.3-0.7-1.8-1.2c-0.5-0.5-0.9-1.1-1.2-1.8c-0.3-0.7-0.4-1.4-0.4-2.1v-81c0-1.3,0.4-2.6,1.1-3.7c0.7-1.1,1.7-2,2.9-2.7
			c1.2-0.6,2.5-0.9,3.8-0.8c1.3,0.1,2.6,0.5,3.7,1.3l44.8,30.2c0.9,0.6,2,0.9,3.1,0.9c1.1,0,2.2-0.3,3.1-0.9l44.8-30.2
			c1.1-0.7,2.4-1.2,3.7-1.3c1.3-0.1,2.7,0.2,3.8,0.8c1.2,0.6,2.2,1.5,2.9,2.7c0.7,1.1,1.1,2.4,1.1,3.7v81c0,0.7-0.1,1.4-0.4,2.1
			c-0.3,0.7-0.7,1.3-1.2,1.8c-0.5,0.5-1.1,0.9-1.8,1.2C453.5,344.9,452.7,345.1,452,345.1z"/>
		<path class="st2" d="M314.6,344.4h-99.9c-1,0-1.9-0.2-2.8-0.5c-0.9-0.4-1.7-0.9-2.4-1.6c-0.7-0.7-1.2-1.5-1.6-2.3
			c-0.4-0.9-0.6-1.8-0.6-2.8V256c0-0.7,0.1-1.4,0.4-2.1c0.3-0.7,0.7-1.2,1.2-1.7c0.5-0.5,1.1-0.9,1.8-1.2c0.7-0.3,1.4-0.4,2.1-0.4
			h16.1c0.7,0,1.4,0.1,2.1,0.4c0.7,0.3,1.3,0.7,1.8,1.2c0.5,0.5,0.9,1.1,1.2,1.7c0.3,0.7,0.4,1.4,0.4,2.1v61.8h60.6V256
			c0-0.7,0.1-1.4,0.4-2.1c0.3-0.7,0.7-1.2,1.2-1.8c0.5-0.5,1.1-0.9,1.8-1.2c0.7-0.3,1.4-0.4,2.1-0.4h16.1c0.7,0,1.4,0.1,2.1,0.4
			c0.7,0.3,1.3,0.7,1.8,1.2c0.5,0.5,0.9,1.1,1.2,1.7c0.3,0.7,0.4,1.4,0.4,2.1v81.2c0,0.9-0.2,1.9-0.6,2.8c-0.4,0.9-0.9,1.7-1.6,2.3
			c-0.7,0.7-1.5,1.2-2.4,1.6C316.5,344.2,315.5,344.4,314.6,344.4"/>
		<path class="st2" d="M481.6,250.6h100c1,0,1.9,0.2,2.8,0.5c0.9,0.4,1.7,0.9,2.4,1.6c0.7,0.7,1.2,1.5,1.6,2.3
			c0.4,0.9,0.6,1.8,0.6,2.8V339c0,0.7-0.1,1.4-0.4,2.1c-0.3,0.7-0.7,1.2-1.2,1.7c-0.5,0.5-1.1,0.9-1.8,1.2c-0.7,0.3-1.4,0.4-2.1,0.4
			h-16.1c-0.7,0-1.4-0.1-2.1-0.4c-0.7-0.3-1.3-0.7-1.8-1.2c-0.5-0.5-0.9-1.1-1.2-1.7c-0.3-0.7-0.4-1.4-0.4-2.1v-58.2
			c0-1-0.4-1.9-1.1-2.5c-0.7-0.7-1.6-1-2.6-1h-53.3c-1,0-1.9,0.4-2.6,1c-0.7,0.7-1.1,1.6-1.1,2.5V339c0,0.7-0.1,1.4-0.4,2.1
			c-0.3,0.7-0.7,1.2-1.2,1.7c-0.5,0.5-1.1,0.9-1.8,1.2c-0.7,0.3-1.4,0.4-2.1,0.4h-16.1c-0.7,0-1.4-0.1-2.1-0.4
			c-0.7-0.3-1.3-0.7-1.8-1.2c-0.5-0.5-0.9-1.1-1.2-1.7c-0.3-0.7-0.4-1.4-0.4-2.1v-81.2c0-0.9,0.2-1.9,0.6-2.8s0.9-1.7,1.6-2.3
			c0.7-0.7,1.5-1.2,2.4-1.6C479.7,250.8,480.6,250.6,481.6,250.6z"/>
		<path class="st2" d="M518.1,299.9v16c0,0.7,0.1,1.4,0.4,2.1c0.3,0.7,0.7,1.2,1.2,1.7c0.5,0.5,1.1,0.9,1.8,1.2s1.4,0.4,2.1,0.4
			h16.1c0.7,0,1.4-0.1,2.1-0.4c0.7-0.3,1.3-0.7,1.8-1.2c0.5-0.5,0.9-1.1,1.2-1.7c0.3-0.7,0.4-1.3,0.4-2.1v-16c0-0.7-0.1-1.4-0.4-2.1
			c-0.3-0.7-0.7-1.2-1.2-1.7c-0.5-0.5-1.1-0.9-1.8-1.2c-0.7-0.3-1.4-0.4-2.1-0.4h-16.1c-0.7,0-1.4,0.1-2.1,0.4
			c-0.7,0.3-1.3,0.7-1.8,1.2c-0.5,0.5-0.9,1.1-1.2,1.7C518.2,298.5,518.1,299.2,518.1,299.9"/>
	</g>
</g>
</svg>
